# xmcd CD database file
#
# Track frame offsets:
#	150
#	29927
#	65551
#	93841
#	119611
#	135336
#	176825
#	194333
#	217277
#
# Disc length: 3385 seconds
#
# Revision: 1
# Processed by: cddbd v1.5.2PL0 Copyright (c) Steve Scherf et al.
# Submitted via: CDex 1.70beta2
#
DISCID=8f0d3709
DTITLE=Enrico Rava - Rava On the Dance Floor
DYEAR=2012
DGENRE=Jazz
TTITLE0=Speechless
TTITLE1=They Don't Care About Us
TTITLE2=Thriller
TTITLE3=Privacy
TTITLE4=Smile
TTITLE5=I Just Can't Stop Loving You
TTITLE6=Little Susie
TTITLE7=Blood On The Dance Floor
TTITLE8=History
EXTD=YEAR: 2012
EXTT0=
EXTT1=
EXTT2=
EXTT3=
EXTT4=
EXTT5=
EXTT6=
EXTT7=
EXTT8=
PLAYORDER=
